/* XPM */
static char * TWE_xpm[] = {
"32 32 93 2",
"  	c None",
". 	c #00BD3A",
"+ 	c #00B828",
"@ 	c #00B729",
"# 	c #00B827",
"$ 	c #00B52F",
"% 	c #00B744",
"& 	c #00C500",
"* 	c #00BD00",
"= 	c #009427",
"- 	c #00AB3E",
"; 	c #00B926",
"> 	c #00AE1C",
", 	c #00A034",
"' 	c #009A30",
") 	c #008131",
"! 	c #00AD3D",
"~ 	c #00B925",
"{ 	c #00B018",
"] 	c #009C3A",
"^ 	c #009637",
"/ 	c #008730",
"( 	c #00BA31",
"_ 	c #00B904",
": 	c #00A32E",
"< 	c #00A131",
"[ 	c #00B33D",
"} 	c #55859D",
"| 	c #008ACC",
"1 	c #5A8499",
"2 	c #558692",
"3 	c #558693",
"4 	c #5B889F",
"5 	c #638096",
"6 	c #678491",
"7 	c #0EA8EF",
"8 	c #81D6FF",
"9 	c #76D2FF",
"0 	c #73CEFD",
"a 	c #74CAF7",
"b 	c #00A4F7",
"c 	c #D42B60",
"d 	c #E5456E",
"e 	c #E04571",
"f 	c #E44A77",
"g 	c #F05782",
"h 	c #B00B44",
"i 	c #16A1E1",
"j 	c #D4F1FF",
"k 	c #CAEDFF",
"l 	c #DCF4FF",
"m 	c #0C9DE0",
"n 	c #00A1ED",
"o 	c #E84D79",
"p 	c #FF87A5",
"q 	c #FF85A2",
"r 	c #FF8BA9",
"s 	c #D5456F",
"t 	c #9A0035",
"u 	c #1BA2E1",
"v 	c #9BDAFF",
"w 	c #3AB5FF",
"x 	c #4FBEFF",
"y 	c #0092D9",
"z 	c #00A3EE",
"A 	c #E8557D",
"B 	c #E20454",
"C 	c #E00048",
"D 	c #C0003D",
"E 	c #900030",
"F 	c #9C0037",
"G 	c #1CA2E2",
"H 	c #C1EAFF",
"I 	c #4EBAF8",
"J 	c #35B0F4",
"K 	c #0096DC",
"L 	c #EB557F",
"M 	c #FE4B81",
"N 	c #C30042",
"O 	c #B60042",
"P 	c #990036",
"Q 	c #9D0038",
"R 	c #08A9F4",
"S 	c #59C9FF",
"T 	c #1DB1F6",
"U 	c #00A2EF",
"V 	c #00A6F3",
"W 	c #00B1FF",
"X 	c #CC1E57",
"Y 	c #D83D6B",
"Z 	c #A10036",
"` 	c #A7003B",
" .	c #AB003C",
"                                                                ",
"                                                                ",
"                    . . + + @ @ # # $ $ % %                     ",
"                    . . + + @ @ # # $ $ % %                     ",
"                    # # & & & & * * = = - -                     ",
"                    # # & & & & * * = = - -                     ",
"                    ; ; > > , , ' ' ) ) ! !                     ",
"                    ; ; > > , , ' ' ) ) ! !                     ",
"                    ~ ~ { { ] ] ^ ^ / / ! !                     ",
"                    ~ ~ { { ] ] ^ ^ / / ! !                     ",
"                    ( ( _ _ : : , , < < [ [                     ",
"                    ( ( _ _ : : , , < < [ [                     ",
"                        } } | | | | } }                         ",
"                        } } | | | | } }                         ",
"                    1 1 | | 2 2 3 3 | | 1 1                     ",
"                    1 1 | | 2 2 3 3 | | 1 1                     ",
"                4 4 | | 1 1         1 1 | | 5 5                 ",
"                4 4 | | 1 1         1 1 | | 5 5                 ",
"            6 6 | | 1 1                 1 1 | | 6 6             ",
"            6 6 | | 1 1                 1 1 | | 6 6             ",
"7 7 8 8 9 9 0 0 a a b b                 c c d d e e f f g g h h ",
"7 7 8 8 9 9 0 0 a a b b                 c c d d e e f f g g h h ",
"i i j j k k l l m m n n                 o o p p q q r r s s t t ",
"i i j j k k l l m m n n                 o o p p q q r r s s t t ",
"u u v v w w x x y y z z                 A A B B C C D D E E F F ",
"u u v v w w x x y y z z                 A A B B C C D D E E F F ",
"G G H H I I J J K K z z                 L L M M N N O O P P Q Q ",
"G G H H I I J J K K z z                 L L M M N N O O P P Q Q ",
"R R S S T T U U V V W W                 X X Y Y Z Z ` `  . . . .",
"R R S S T T U U V V W W                 X X Y Y Z Z ` `  . . . .",
"                                                                ",
"                                                                "};
