/* XPM */
static char * C:\Users\sasaboy\Documents\xpdl\TWE_xpm[] = {
"32 32 25 1",
" 	c None",
".	c #A03437",
"+	c #9F3437",
"@	c #9F3336",
"#	c #A43639",
"$	c #A33639",
"%	c #A23639",
"&	c #A23538",
"*	c #A13538",
"=	c #A13437",
"-	c #A7383B",
";	c #A6383B",
">	c #A5383B",
",	c #A5373A",
"'	c #A4373A",
")	c #A8393C",
"!	c #A7393C",
"~	c #FFFFFF",
"{	c #EFDCDC",
"]	c #B86467",
"^	c #F0F7FC",
"/	c #F9FCFE",
"(	c #F6FAFD",
"_	c #A83A3D",
":	c #F3F5FA",
"                                ",
"               .++@             ",
"         #$%&*=.++@             ",
"    -;>,'#$%&*=.++@             ",
" )!--;>,'#$%&*=.++@             ",
" )!--;>,'#$%&*=.++@@@@@@@@@@@@  ",
" )!--;>,'#$%&*=.++@~~~~~~~~~~{@ ",
" )!--;>,'#$%&*=.++@~~~~~~~~~~~@ ",
" )!--;>,'#$%&*=.++@~~~~]@]~~~~@ ",
" )!--;>,'#$%&*=.++@~~~]@{@]~~~@ ",
" )!--~~~^/^~~~^.++@~~]@{~{@]~~@ ",
" )!--~~~^~^~~~^.++@@@@{~~~{@~~@ ",
" )!--;>,'~^%&*=.++@~~]@{~{@]~~@ ",
" )!--;>,'~^%&*=.++@~~~]@{@]~~~@ ",
" )!--;>,'~^%&*=.++@~~~~]@]~~~~@ ",
" )!--;>,'~^%&*=.++@~~~~~@~~~~~@ ",
" )!--;>,'~^%&*=.++@~~~~~@~~~~~@ ",
" )!--;>,'~^%&*=.++@@@]~~@~~~~~@ ",
" )!--;>,'~^%&*=.++@~~@~~@~~~~~@ ",
" )!--;>,'~(%&*=.++@~~@~~@~~~~~@ ",
" )!--;>,'~~%&*=.++@~~@@@]~~~~~@ ",
" )!-_;>,'~~%&*=.++@~~@~~~~~~~~@ ",
" )!--;>,'#$%&*=.++@~~@~~~~~~~~@ ",
" )!--;>,'#$%&*=.++@@@]~~~~~~~~@ ",
" )!--;>,'#$%&*=.++@~~~~~~~~~~~@ ",
" )!--;>,'#$%&*=.++@~~~~~~~~~~:@ ",
" )!--;>,'#$%&*=.++@@@@@@@@@@@@@ ",
" )!--;>,'#$%&*=.++@             ",
"    -;>,'#$%&*=.++@             ",
"         #$%&*=.++@             ",
"               .++@             ",
"                                "};
