/* XPM */
static char * C:\Users\sasaboy\Documents\xpdl\TWE_xpm[] = {
"32 32 49 1",
" 	c None",
".	c #A34AA4",
"+	c #C48BC4",
"@	c #ECDBEC",
"#	c #EDDCED",
"$	c #C38BC4",
"%	c #FFFFFF",
"&	c #FAF6FA",
"*	c #E7D0E7",
"=	c #D9B6DA",
"-	c #CEA1CF",
";	c #CC9CCD",
">	c #D8B4D9",
",	c #A651A7",
"'	c #CC9CCC",
")	c #ECDCED",
"!	c #EAD6EA",
"~	c #E7D2E8",
"{	c #A54CA5",
"]	c #E5CCE5",
"^	c #DEBFDE",
"/	c #D2A7D2",
"(	c #E3CAE4",
"_	c #E2C7E2",
":	c #FAF7FA",
"<	c #E1C6E2",
"[	c #E8D3E8",
"}	c #EAD7EA",
"|	c #CB9BCC",
"1	c #DBB9DB",
"2	c #EBD9EB",
"3	c #C48CC5",
"4	c #FCFBFC",
"5	c #F5EDF5",
"6	c #DCBCDD",
"7	c #A54EA5",
"8	c #AF63B0",
"9	c #CD9ECE",
"0	c #F6EFF6",
"a	c #C58EC6",
"b	c #A753A8",
"c	c #F9F4F9",
"d	c #A652A7",
"e	c #F8F3F8",
"f	c #E2C6E2",
"g	c #A44EA5",
"h	c #AE61AF",
"i	c #F6EEF6",
"j	c #DDBDDD",
"                                ",
"               ...              ",
"          ........              ",
"    ..............              ",
"................................",
"..................             .",
"..................             .",
"..+@....#$.%%&*...             .",
"...=-..;>..%.,')..             .",
"....!..~...%..,&..   {.......  .",
".....]^....%.,/(..   .      .  .",
".....^_....%%:<.......      .  .",
"....[..}...%......   .      .  .",
"...='..|1..%......   ........  .",
"..$#....23.%......       .     .",
"..................       .     .",
"..................       .     .",
"..%%456....%......       .     .",
"..%.7890...%......       .     .",
"..%....a(..%..........   .     .",
"..%....bc..%......   .   .     .",
"..%....de..%......   .....     .",
"..%....+f..%......   .         .",
"..%.gh;5...%..........         .",
"..%%4ij....%%%%%..             .",
"..................             .",
"..................             .",
"................................",
"    ..............              ",
"          ........              ",
"               ...              ",
"                                "};
