/* XPM */
static char * C:\Users\sasaboy\Documents\xpdl\TWE_xpm[] = {
"32 32 37 1",
" 	c None",
".	c #7BA990",
"+	c #993333",
"@	c #660000",
"#	c #BC0C0C",
"$	c #89B49D",
"%	c #FFFFFF",
"&	c #E8EBF4",
"*	c #B8C2DE",
"=	c #74A98C",
"-	c #A6C8B5",
";	c #99BFAA",
">	c #BDD6C8",
",	c #F2F7F4",
"'	c #ADCCBA",
")	c #DADFEE",
"!	c #BDC7E1",
"~	c #D5E5DC",
"{	c #C8DCD1",
"]	c #A8C8B6",
"^	c #E1E5F1",
"/	c #F7FAF8",
"(	c #C4CEE5",
"_	c #D8E7DF",
":	c #E0ECE5",
"<	c #9DC1AD",
"[	c #F5F8F6",
"}	c #DDEAE3",
"|	c #EAF2EE",
"1	c #B7D2C3",
"2	c #8CB89F",
"3	c #EDF4F0",
"4	c #71A689",
"5	c #85B299",
"6	c #6FA587",
"7	c #C4DACF",
"8	c #F3F5FA",
"                                ",
"               .+@#             ",
"         $+@#######             ",
"    +@#############             ",
" ##################             ",
" #############################  ",
" ##################%%%%%%%%%%&# ",
" ##################%%%%%%%%%%%# ",
" ##################%%%%+#+%%%%# ",
" ##################%%%+#*#+%%%# ",
" ####=-;###>,'#####%%+#)%)#+%%# ",
" ####+%%+#+%%+########!%%%!#%%# ",
" #####~%'#{%]######%%+#^%^#+%%# ",
" #####+%/+%%+######%%%+#(#+%%%# ",
" ######_%:%<#######%%%%+#+%%%%# ",
" ######+%%[+#######%%%%%#%%%%%# ",
" ######+%%%+#######%%%%%#%%%%%# ",
" ######:%}%'#########+%%#%%%%%# ",
" #####+%:+%%+######%%#%%#%%%%%# ",
" #####|%.#~%1######%%#%%#%%%%%# ",
" ####2%3##4%%+#####%%###+%%%%%# ",
" ####5-6###{/7#####%%#%%%%%%%%# ",
" ##################%%#%%%%%%%%# ",
" ####################+%%%%%%%%# ",
" ##################%%%%%%%%%%%# ",
" ##################%%%%%%%%%%8# ",
" #############################+ ",
" ##################             ",
"    +@#############             ",
"         $+@#######             ",
"               .+@#             ",
"                                "};
